<!DOCTYPE svg PUBLIC "-//W3C//DTD SVG 1.1//EN" "http://www.w3.org/Graphics/SVG/1.1/DTD/svg11.dtd">
<!-- Uploaded to: SVG Repo, www.svgrepo.com, Transformed by: SVG Repo Mixer Tools -->
<svg height="800px" width="800px" version="1.1" id="Layer_1" xmlns="http://www.w3.org/2000/svg" xmlns:xlink="http://www.w3.org/1999/xlink" viewBox="0 0 511.999 511.999" xml:space="preserve" fill="#000000">
<g id="SVGRepo_bgCarrier" stroke-width="0"/>
<g id="SVGRepo_tracerCarrier" stroke-linecap="round" stroke-linejoin="round"/>
<g id="SVGRepo_iconCarrier"> <path style="fill:#E0A88F;" d="M195.926,255.12l-0.534,46.032c0,0,19.354,25.206,54.462,25.206c42.31,0,66.765-25.206,66.765-25.206 l0.621-47.611L195.926,255.12z"/> <path style="fill:#D49481;" d="M245.458,285.61c7.306,3.952,17.669,8.547,30.701,11.34c16.781,3.597,31.086,2.729,40.459,1.401 c0.206-14.936,0.413-29.874,0.621-44.81L245.458,285.61z"/> <ellipse style="fill:#F2C6A0;" cx="255.999" cy="155.232" rx="92.637" ry="131.226"/> <path style="fill:#E6B593;" d="M256.004,24.005c-4.836,0-9.679,0.555-14.403,1.581c-44.323,9.801-78.236,64.11-78.236,129.643 c0,3.217,0.085,6.406,0.246,9.565c0.709-0.371,1.415-0.749,2.118-1.133c27.276-14.905,61.288-5.422,77.742,20.95 c11.777,18.876,26.405,34.882,43.08,47.051c6.62,4.831,8.013,14.108,2.995,20.587c-13.099,16.909-29.629,28.575-47.946,32.625 c4.694,1.038,9.504,1.582,14.403,1.582c51.163,0,92.638-58.751,92.638-131.225C348.644,82.757,307.167,24.005,256.004,24.005z"/> <path style="fill:#58595B;" d="M256.004,0c-63.909,0-115.717,64.125-115.717,143.228c0,4.041,0.143,8.039,0.407,11.996 c33.884-0.145,64.336-18.311,85.425-47.165c13.016,61.467,58.197,106.816,111.939,106.816c6.489,0,14.904-1.187,19.048-1.943 c8.722-19.747,14.615-44.399,14.615-69.705C371.721,64.125,319.913,0,256.004,0z"/> <path style="fill:#414042;" d="M256.004,0c-8.232,0-16.26,1.072-24.006,3.094c52.387,13.681,91.711,71.219,91.711,140.133 c0,24.378-4.938,47.318-13.617,67.412c8.958,2.752,18.321,4.236,27.966,4.236c6.489,0,12.817-0.877,19.048-1.943 c9.305-20.632,14.615-44.399,14.615-69.705C371.721,64.125,319.913,0,256.004,0z"/> <path style="fill:#ED4850;" d="M256.634,254.54c-5.716,0-11.346-1.201-16.743-3.574c-4.551-2.001-6.618-7.313-4.617-11.864 c2.001-4.551,7.314-6.616,11.864-4.617c3.183,1.4,6.451,2.105,9.769,2.05c2.815-0.032,5.615-0.598,8.325-1.677 c4.619-1.839,9.854,0.413,11.694,5.032c1.84,4.619-0.413,9.854-5.032,11.694c-4.772,1.9-9.743,2.894-14.775,2.953 C256.957,254.539,256.795,254.54,256.634,254.54z"/> <path style="fill:#F1F2F2;" d="M499.66,458.787L499.66,458.787v38.809c0,0-14.082,14.403-20.305,14.403 s-14.082-14.403-20.305-14.403s-14.082,14.403-20.305,14.403s-14.082-14.403-20.305-14.403s-14.082,14.403-20.305,14.403 s-14.082-14.403-20.305-14.403s-14.082,14.403-20.305,14.403s-14.082-14.403-20.305-14.403s-14.082,14.403-20.305,14.403 s-14.082-14.403-20.305-14.403s-14.082,14.403-20.305,14.403s-14.082-14.403-20.305-14.403s-14.082,14.403-20.305,14.403 s-14.082-14.403-20.305-14.403s-14.082,14.403-20.305,14.403s-14.082-14.403-20.305-14.403s-14.082,14.403-20.305,14.403 s-14.082-14.403-20.305-14.403c-6.223,0-14.082,14.403-20.305,14.403s-14.082-14.403-20.305-14.403s-14.082,14.403-20.305,14.403 c-6.223,0-14.082-14.403-20.305-14.403s-14.082,14.403-20.305,14.403s-20.305-14.403-20.305-14.403v-38.809l0,0 c0-66.094,44.931-123.729,109.028-139.854l50.276-13.981l23.738-6.602c0,0,19.805,25.206,55.963,25.206 c40.059,0,65.265-25.206,65.265-25.206l20.87,5.138l56.065,13.803c62.662,17.168,106.105,74.116,106.105,139.087v2.408H499.66z"/> <path style="fill:#D1D3D4;" d="M254.054,346.552c34.431,0,64.871-17.008,83.439-43.061l-20.874-5.138 c0,0-25.206,25.206-65.265,25.206c-36.158,0-55.963-25.206-55.963-25.206l-23.737,6.602 C190.308,330.184,220.266,346.552,254.054,346.552z"/> <circle style="fill:#58595B;" cx="219.907" cy="187.687" r="9.001"/> </g>
</svg>