<!DOCTYPE svg PUBLIC "-//W3C//DTD SVG 1.1//EN" "http://www.w3.org/Graphics/SVG/1.1/DTD/svg11.dtd">

<!-- Uploaded to: SVG Repo, www.svgrepo.com, Transformed by: SVG Repo Mixer Tools -->
<svg width="800px" height="800px" viewBox="0 0 32 32" id="OBJECT" xmlns="http://www.w3.org/2000/svg" fill="#ffffff">

<g id="SVGRepo_bgCarrier" stroke-width="0"/>

<g id="SVGRepo_tracerCarrier" stroke-linecap="round" stroke-linejoin="round"/>

<g id="SVGRepo_iconCarrier">

<defs>

<style>.cls-1{fill:#b2b2b2;}</style>

</defs>

<title/>

<path class="cls-1" d="M22.25,18.24a1,1,0,0,0-1.09.21l-5.42,5.42a1,1,0,0,0-.24,1l1.81,5.42A1,1,0,0,0,18,31a.85.85,0,0,0,.23,0,1,1,0,0,0,.71-.29l2.11-2.12a6,6,0,0,0,1.79-4.32V19.16A1,1,0,0,0,22.25,18.24Z"/>

<path class="cls-1" d="M12.84,9.13H7.73a6,6,0,0,0-4.32,1.79L1.29,13A1,1,0,0,0,1,14a1,1,0,0,0,.65.72L7.1,16.5a1.19,1.19,0,0,0,.32.05,1,1,0,0,0,.71-.29l5.42-5.42a1,1,0,0,0,.21-1.09A1,1,0,0,0,12.84,9.13Z"/>

<path d="M13.55,23.87,8.13,18.45a1,1,0,0,0-1.42,0L6,19.14a14,14,0,0,0-4.13,10,1,1,0,0,0,1,1,14,14,0,0,0,10-4.13l.69-.68A1,1,0,0,0,13.55,23.87Z"/>

<path class="cls-1" d="M30,1A22.66,22.66,0,0,0,13.87,7.68L6.32,15.23a3,3,0,0,0,0,4.25l6.2,6.2a3,3,0,0,0,4.25,0l7.55-7.55A22.66,22.66,0,0,0,31,2,1,1,0,0,0,30,1Z"/>

<path d="M19.9,12.1a4,4,0,1,0,0,5.66A4,4,0,0,0,19.9,12.1Z"/>

<path d="M28.14,13.05A22.68,22.68,0,0,0,31,2a1,1,0,0,0-1-1A22.68,22.68,0,0,0,19,3.86,15.06,15.06,0,0,1,28.14,13.05Z"/>

</g>

</svg>