<?xml version='1.0' encoding='utf-8'?>
<svg  xmlns="http://www.w3.org/2000/svg"  version="1.1" fill="white" id="Layer_1" x="0px" y="0px" viewBox="0 0 74 74" style="enable-background:new 0 0 74 74;"> <g> <path d="M64.76,56.55c-0.11-2.16-1.68-3.96-3.8-4.37l-3.24-0.62c0.07,0.09,0.11,0.21,0.09,0.33c-0.03,0.25-0.24,0.42-0.48,0.41 c0.23,0.07,0.36,0.32,0.29,0.55c-0.06,0.24-0.29,0.38-0.53,0.33c0.21,0.12,0.3,0.38,0.2,0.6c-0.1,0.23-0.36,0.33-0.59,0.24 c0.2,0.15,0.24,0.42,0.1,0.62c-0.14,0.21-0.41,0.26-0.61,0.13c0.16,0.19,0.15,0.46-0.02,0.64c-0.18,0.17-0.46,0.18-0.64,0.02 c0.13,0.2,0.08,0.48-0.13,0.62c-0.2,0.14-0.48,0.1-0.62-0.1c0.08,0.22-0.02,0.48-0.24,0.58c0,0,0,0,0,0.01 c-0.23,0.09-0.49,0-0.6-0.21c0.05,0.24-0.1,0.48-0.34,0.53c-0.24,0.07-0.48-0.07-0.55-0.3c0.01,0.24-0.18,0.45-0.43,0.47 c-0.25,0.02-0.46-0.16-0.49-0.41c-0.02,0.23-0.23,0.41-0.46,0.41c0,0-0.02,0-0.03,0c-0.25-0.02-0.43-0.23-0.43-0.47 c-0.06,0.23-0.31,0.37-0.55,0.31c-0.24-0.06-0.39-0.29-0.34-0.53c-0.11,0.21-0.37,0.31-0.6,0.21c-0.22-0.1-0.33-0.36-0.24-0.59 c-0.14,0.19-0.42,0.25-0.62,0.11c-0.21-0.15-0.27-0.42-0.13-0.63c-0.18,0.17-0.46,0.17-0.65,0c-0.17-0.18-0.18-0.45-0.01-0.64 c-0.21,0.13-0.48,0.07-0.62-0.13c-0.15-0.2-0.1-0.48,0.09-0.62c-0.22,0.09-0.49-0.01-0.59-0.23c-0.1-0.23-0.01-0.49,0.2-0.61 c-0.24,0.05-0.47-0.09-0.53-0.32c-0.07-0.24,0.06-0.48,0.28-0.57c-0.23,0.02-0.45-0.15-0.47-0.39c-0.03-0.15,0.03-0.29,0.13-0.38 l-3.29,0.63c-0.84,0.16-1.6,0.55-2.21,1.09L41,52.67c0.88-0.86,1.58-2.02,2.01-3.2c0.28-0.2,0.5-0.49,0.65-0.85 c0.22-0.5,0.2-1.04,0-1.5v-2.73c0-2.55-1.75-4.69-4.1-5.31V23.85c2.13,0.1,4.08,0.7,5.18,1.63c0.75,0.63,1.83,0.63,2.58,0 c1.21-1.01,3.43-1.65,5.78-1.65c1.52,0,2.95,0.25,4.14,0.72c0.71,0.28,1.48,0.14,2.06-0.36c0.59-0.51,0.84-1.29,0.66-2.04 c-2.25-9.59-10.6-16.33-20.41-16.59V4.81h-1.2v0.74c-9.81,0.27-18.16,7-20.41,16.59c-0.18,0.75,0.08,1.53,0.66,2.04 c0.58,0.5,1.35,0.64,2.06,0.36c1.19-0.47,2.63-0.72,4.14-0.72c2.36,0,4.57,0.63,5.78,1.65c0.37,0.31,0.83,0.47,1.29,0.47 c0.46,0,0.92-0.16,1.29-0.47c1.11-0.93,3.06-1.53,5.18-1.63v15.04c-0.07,0-0.13-0.01-0.2-0.01c-3.03,0-5.5,2.47-5.5,5.5v2.29 c-0.46,0.5-0.6,1.24-0.3,1.95c0.21,0.48,0.58,0.86,1.03,1.05c0.42,1.05,1.08,2.17,1.94,3l-0.09,0.92l-3.61,0.75 c-2.13,0.44-3.68,2.34-3.68,4.52v8.72c0,0.31,0.09,0.6,0.25,0.85H10.73c-0.63,0-1.14-0.51-1.14-1.15v-9.06 c0-3.53,2.53-6.51,6.01-7.09l2.56-0.43l3.34,4.18c0.07,0.09,0.18,0.14,0.29,0.14c0,0,0,0,0.01,0c0.11,0,0.22-0.05,0.29-0.15 l1.87-2.55l1.87,2.55c0.07,0.1,0.18,0.15,0.29,0.15c0.01,0,0.01,0,0.01,0c0.11,0,0.22-0.05,0.29-0.14l3.34-4.18l2.56,0.43 c0.02,0,0.04,0,0.06,0c0.18,0,0.34-0.13,0.37-0.31c0.03-0.2-0.1-0.4-0.31-0.43l-2.65-0.44l-1.45-1.44l-0.27-2.48l1.06-1.16 c0.81-0.88,1.25-2.02,1.25-3.22V40.8c1.23-1.02,2.3-3.3,0.95-3.92c-0.09-0.04-0.18-0.07-0.26-0.09c0.53-3.72,0.06-8.34-4.85-9.63 c-5.97-1.57-10.49,2.82-9.3,9.63c-0.11,0.01-0.22,0.03-0.35,0.09c-1.35,0.62-0.29,2.91,0.95,3.92v0.87c0,1.19,0.45,2.34,1.25,3.22 l1.06,1.16l-0.27,2.48l-1.45,1.44l-2.65,0.44c-3.84,0.64-6.63,3.93-6.63,7.83v9.06c0,1.04,0.85,1.9,1.89,1.9h18.8h17.51 c0.42,0,0.81-0.17,1.09-0.45h12.13v-9.05l0.77,9.05h3.26c0.5,0,0.89-0.41,0.87-0.91L64.76,56.55z M59.24,22.32 c0.11,0.49-0.04,0.97-0.42,1.3c-0.37,0.32-0.85,0.4-1.3,0.23c-1.28-0.5-2.81-0.77-4.42-0.77c-2.56,0-4.9,0.68-6.26,1.82 c-0.24,0.2-0.54,0.3-0.84,0.29c-0.28-9.39-2.6-17.01-5.62-18.85C49.49,6.95,57.13,13.34,59.24,22.32z M31.09,24.91 c-1.36-1.14-3.7-1.82-6.26-1.82c-1.61,0-3.14,0.27-4.42,0.77c-0.45,0.17-0.93,0.09-1.3-0.23c-0.38-0.33-0.54-0.82-0.42-1.3 c2.11-8.98,9.76-15.37,18.86-15.98c-3.02,1.85-5.34,9.47-5.62,18.85C31.63,25.2,31.33,25.11,31.09,24.91z M23.95,48.25 c1.3,0,2.54-0.54,3.44-1.48l0.19,1.74l-3.63,2.72l-3.62-2.72l0.19-1.74C21.41,47.7,22.65,48.25,23.95,48.25z M18.27,41.67v-5.13 c0.91,0.09,1.86-0.04,2.78-0.38c1.05-0.39,1.96-1.01,2.61-1.78c1.04,1.06,2.46,1.66,3.95,1.66c0.69,0,1.38-0.13,2.02-0.38v6.01 c0,1-0.38,1.97-1.06,2.71l-1.67,1.82c-0.76,0.82-1.83,1.29-2.95,1.29s-2.2-0.47-2.95-1.29l-1.67-1.82 C18.65,43.64,18.27,42.67,18.27,41.67z M34.02,49.25c-0.04-0.11-0.13-0.19-0.24-0.23c-0.31-0.09-0.58-0.35-0.73-0.7 c-0.03-0.06-0.03-0.13-0.05-0.19l0.47,0.47c0.12,0.11,0.29,0.14,0.43,0.07c0.15-0.07,0.23-0.23,0.21-0.39 c-0.02-0.15-0.44-3.52,2.43-4.39c0.43,0.56,1.71,1.92,4.09,2.1c0.12,0.01,0.22-0.03,0.29-0.11c0.31,0.18,0.62,0.35,0.95,0.48 c0.08,0.03,0.16,0.03,0.24,0.01c0.15,0.54,0.22,1.19,0.11,1.9c-0.03,0.16,0.05,0.32,0.19,0.4c0.06,0.02,0.12,0.04,0.18,0.04 c0.07,0,0.13-0.03,0.19-0.07c-0.08,0.1-0.18,0.19-0.28,0.25c-0.07,0.04-0.13,0.11-0.16,0.2c-0.7,1.99-2.31,4.14-4.19,4.14 C36.34,53.24,34.77,51.24,34.02,49.25z M38.16,53.99c0.77,0,1.49-0.29,2.14-0.74l0.11,1.14c0,1.73-4.51,1.7-4.51,0.04l0.04-0.43 c0-0.01,0-0.02,0-0.03l0.07-0.71C36.66,53.7,37.37,53.99,38.16,53.99z M47.04,68.44H29.53c-0.46,0-0.83-0.38-0.83-0.85v-8.72 c0-1.82,1.3-3.41,3.08-3.78l3.38-0.71c0,0.66,0.36,1.22,1.01,1.59c0.53,0.3,1.24,0.47,2,0.47c1.45,0,3-0.65,3-2.11l0-0.02 l3.63,0.76c1.79,0.37,3.08,1.96,3.08,3.78v8.72C47.88,68.06,47.5,68.44,47.04,68.44z"/> <path d="M58.08,45.81l0.02-0.08c1.32-1.08,2.46-3.52,1.01-4.18c-0.34-0.16-0.61-0.13-0.82-0.01c-0.18-2.94-0.74-4.79-1.62-5.79 c0.07-0.14,0.13-0.28,0.16-0.44c0.27-1.31-0.99-2.67-2.81-3.03c-1.82-0.36-3.51,0.41-3.79,1.71c-0.02,0.1-0.03,0.2-0.04,0.29 c-1.57,0.13-2.98,1.05-4.15,2.87c-0.93,1.45-1.05,2.91-0.81,4.36c-0.03,0.01-0.07,0.02-0.1,0.03c-1.46,0.67-0.27,3.16,1.07,4.22 l0.01,0.04c0.32,1.62,1.18,3.11,2.39,4.24l-0.11,1.13l-1.42,0.27c0.15,0.06,0.26,0.19,0.28,0.36c0.03,0.22-0.1,0.42-0.31,0.5 c0.22-0.02,0.42,0.12,0.47,0.33c0.06,0.21-0.03,0.43-0.23,0.53c0.22-0.05,0.43,0.06,0.52,0.26c0.09,0.19,0.03,0.42-0.14,0.55 c0.19-0.07,0.42-0.01,0.55,0.17c0.12,0.17,0.1,0.41-0.03,0.57c0.17-0.11,0.4-0.09,0.56,0.06c0.15,0.16,0.18,0.4,0.07,0.57 c0.15-0.14,0.39-0.17,0.57-0.04c0.19,0.12,0.25,0.35,0.17,0.54c0.13-0.17,0.36-0.23,0.56-0.15c0.19,0.1,0.3,0.31,0.27,0.52 c0.09-0.19,0.3-0.3,0.51-0.24c0.22,0.05,0.36,0.25,0.35,0.46c0.07-0.2,0.26-0.34,0.48-0.32c0.22,0.01,0.4,0.18,0.42,0.39 c0.02-0.21,0.2-0.38,0.42-0.4c0.21-0.02,0.41,0.12,0.48,0.32c-0.01-0.21,0.13-0.4,0.34-0.46c0.21-0.06,0.43,0.05,0.52,0.23 c-0.03-0.2,0.07-0.41,0.27-0.51c0.19-0.08,0.42-0.02,0.55,0.15c-0.07-0.2-0.01-0.42,0.17-0.55c0.18-0.12,0.42-0.1,0.58,0.04 c-0.12-0.17-0.09-0.42,0.05-0.57c0.16-0.15,0.4-0.17,0.57-0.07c-0.13-0.15-0.16-0.39-0.03-0.56c0.12-0.19,0.35-0.25,0.55-0.18 c-0.17-0.12-0.24-0.35-0.15-0.55c0.1-0.2,0.31-0.3,0.51-0.27c-0.18-0.09-0.29-0.31-0.22-0.52c0.05-0.21,0.25-0.35,0.47-0.34 c-0.2-0.07-0.34-0.27-0.31-0.49c0.01-0.15,0.11-0.27,0.23-0.34l-1.38-0.27l-0.11-1.08C56.88,48.97,57.75,47.45,58.08,45.81z M54.95,50.74l0.12,1.23c0,2.32-5.92,2.29-5.92,0.04l0.13-1.31c0.69,0.59,1.55,0.93,2.46,0.93h0.79 C53.43,51.64,54.28,51.31,54.95,50.74z M46.67,44.35l0-0.33c0,0,0.02-0.59-0.09-1.21l0.08-0.18c2.33-2.82,5.18-3.26,6.3-5.48 c0.7,2.92,4.03,3.75,4.61,6.34c-0.02,0.31-0.01,0.54-0.01,0.54l0,0.55l-0.22,1.09c-0.3,1.51-1.1,2.9-2.25,3.93 c-0.1,0.09-0.2,0.19-0.29,0.29c-0.58,0.64-1.4,1.01-2.26,1.01h-0.79c-0.86,0-1.69-0.37-2.26-1.01c-0.09-0.1-0.19-0.2-0.29-0.29 c-1.15-1.02-1.95-2.42-2.25-3.93L46.67,44.35z"/> </g> </svg>